<svg id="Camada_2" data-name="Camada 2" xmlns="http://www.w3.org/2000/svg" width="126.812" height="44.982" viewBox="0 0 126.812 44.982">
  <g id="Layer_1" data-name="Layer 1" transform="translate(0 0)">
    <ellipse id="Ellipse_2154" data-name="Ellipse 2154" cx="3.568" cy="3.568" rx="3.568" ry="3.568" transform="translate(68.356 0)" fill="#fff"/>
    <path id="Path_6735" data-name="Path 6735" d="M885.7,50.88h-4.618a.193.193,0,0,0-.186.217l-.218,1.935a.217.217,0,0,1-.355.169,12.743,12.743,0,0,0-2.7-1.814,11.93,11.93,0,0,0-4.5-.977h-.2a12.012,12.012,0,0,0-4.363.829,12.334,12.334,0,0,0-3.919,2.709A11.944,11.944,0,0,0,862,57.807a11.785,11.785,0,0,0,2.642,13.047,12.45,12.45,0,0,0,3.922,2.715,12.068,12.068,0,0,0,4.562.822,11.941,11.941,0,0,0,4.5-.976,12.467,12.467,0,0,0,2.671-1.815.22.22,0,0,1,.221-.031.215.215,0,0,1,.131.179l.179,1.751a.217.217,0,0,0,.217.2H885.7a.217.217,0,0,0,.217-.217V51.1a.218.218,0,0,0-.219-.219Zm-12.425,18.4a6.954,6.954,0,1,1,6.973-6.958A6.954,6.954,0,0,1,873.275,69.278Z" transform="translate(-759.107 -44.441)" fill="#fff"/>
    <path id="Path_6736" data-name="Path 6736" d="M664.446,53.444a11.845,11.845,0,0,0-3.7-2.549,11.292,11.292,0,0,0-8.62.09,12.107,12.107,0,0,0-1.827,1.131.218.218,0,0,1-.337-.167l-.128-1.172a.217.217,0,0,0-.215-.184H645.1a.218.218,0,0,0-.217.217V73.189a.217.217,0,0,0,.217.217h4.8a.218.218,0,0,0,.218-.217s-.009-13.673,0-13.7a5.911,5.911,0,0,1,1.519-2.418,6.749,6.749,0,0,1,4.777-1.866,6.11,6.11,0,0,1,4.4,2.013,6.488,6.488,0,0,1,1.816,4.618V73.194a.212.212,0,0,0,.217.211h4.805c.118,0,.217-.144.217-.264v-11.7a11.351,11.351,0,0,0-3.424-8Z" transform="translate(-568.52 -44.153)" fill="#fff"/>
    <path id="Path_6737" data-name="Path 6737" d="M12.065,55.139a7.043,7.043,0,0,1,5.5,2.629.213.213,0,0,0,.29.037l3.729-2.645a.214.214,0,0,0,.088-.143.221.221,0,0,0-.045-.171,12.021,12.021,0,1,0,0,14.654.225.225,0,0,0,.045-.172.214.214,0,0,0-.088-.143l-3.729-2.645a.216.216,0,0,0-.29.038,6.9,6.9,0,0,1-5.5,2.472A6.726,6.726,0,0,1,5.24,62.172,6.856,6.856,0,0,1,12.065,55.139Z" transform="translate(0 -44.212)" fill="#fff"/>
    <path id="Path_6738" data-name="Path 6738" d="M434.655,71.05a9.112,9.112,0,0,0,5.552-8.9c0-5.816-3.819-12.078-12.2-12.078-5.944,0-12.341,3.78-12.341,12.078a11.8,11.8,0,0,0,3.369,8.781,12.642,12.642,0,0,0,8.972,3.2c4.214,0,6.928,1.864,6.928,4.986,0,3.048-3.41,4.841-7.02,4.841s-6.852-1.872-6.967-5.343a.219.219,0,0,0-.217-.216h-4.77a.215.215,0,0,0-.218.211,9.957,9.957,0,0,0,2.723,7.279c2.117,2.12,5.382,3.24,9.442,3.24,5.92,0,12.294-3.133,12.294-10.011,0-2.53-.96-5.915-5.536-7.665a.217.217,0,0,1-.017-.4ZM428,68.933c-4.181,0-7.1-2.842-7.1-6.9,0-4.224,2.789-6.953,7.1-6.953a6.729,6.729,0,0,1,6.962,6.953,6.636,6.636,0,0,1-6.964,6.9Z" transform="translate(-366.451 -44.141)" fill="#fff"/>
    <path id="Path_6739" data-name="Path 6739" d="M201.895,50.15a12.022,12.022,0,1,0,12.065,12.022A12.057,12.057,0,0,0,201.895,50.15Zm0,18.827a6.82,6.82,0,0,1-6.826-6.8,6.829,6.829,0,1,1,13.651,0,6.82,6.82,0,0,1-6.825,6.8Z" transform="translate(-167.352 -44.212)" fill="#fff"/>
    <path id="Path_6740" data-name="Path 6740" d="M647.88,290.93h3.685v.525h-3.109V293.2h2.785v.525h-2.785v1.787h3.15v.521H647.88Z" transform="translate(-571.165 -256.481)" fill="#fff"/>
    <path id="Path_6741" data-name="Path 6741" d="M697.75,290.93h1.776a2.544,2.544,0,0,1,2.712,2.538v.014a2.555,2.555,0,0,1-2.712,2.552H697.75Zm1.776,4.571a1.975,1.975,0,0,0,2.114-2v-.014a1.99,1.99,0,0,0-2.114-2.02h-1.2V295.5Z" transform="translate(-615.13 -256.481)" fill="#fff"/>
    <path id="Path_6742" data-name="Path 6742" d="M753.85,293.9V290.93h.575v2.931c0,1.1.584,1.721,1.561,1.721.94,0,1.539-.568,1.539-1.684V290.93h.576v2.923a2.013,2.013,0,0,1-2.131,2.26A1.99,1.99,0,0,1,753.85,293.9Z" transform="translate(-664.587 -256.481)" fill="#fff"/>
    <path id="Path_6743" data-name="Path 6743" d="M808,292.844v-.014a2.571,2.571,0,0,1,2.58-2.639,2.654,2.654,0,0,1,1.99.81l-.393.423a2.217,2.217,0,0,0-1.6-.7,2,2,0,0,0-1.975,2.092v.014a2.011,2.011,0,0,0,1.975,2.107,2.214,2.214,0,0,0,1.648-.737l.379.373a2.659,2.659,0,0,1-2.041.9A2.542,2.542,0,0,1,808,292.844Z" transform="translate(-712.326 -255.829)" fill="#fff"/>
    <path id="Path_6744" data-name="Path 6744" d="M862.558,290.62h.539l2.326,5.137H864.8l-.6-1.349h-2.778l-.605,1.349h-.592Zm1.421,3.274-1.159-2.605-1.166,2.605Z" transform="translate(-758.371 -256.208)" fill="#fff"/>
    <path id="Path_6745" data-name="Path 6745" d="M918.417,296.246l.561-.817a2.55,2.55,0,0,1-2.208-2.6v-.014a2.571,2.571,0,0,1,2.58-2.639,2.654,2.654,0,0,1,1.99.81l-.393.423a2.218,2.218,0,0,0-1.6-.7,2,2,0,0,0-1.975,2.092v.014a2.011,2.011,0,0,0,1.975,2.106,2.214,2.214,0,0,0,1.648-.737l.379.373a2.651,2.651,0,0,1-1.925.889l-.481,1.049Z" transform="translate(-808.216 -255.811)" fill="#fff"/>
    <path id="Path_6746" data-name="Path 6746" d="M971.33,280.746h.54l2.326,5.137h-.619l-.592-1.349H970.2l-.609,1.349H969Zm-.909-.525c.146-.5.342-.744.685-.744.32,0,.735.284.977.284.189,0,.269-.1.379-.342l.355.1c-.146.5-.342.737-.684.737-.321,0-.737-.284-.977-.284-.189,0-.27.1-.38.349Zm2.333,3.8-1.159-2.605-1.166,2.605Z" transform="translate(-854.262 -246.334)" fill="#fff"/>
    <path id="Path_6747" data-name="Path 6747" d="M1025.57,292.844v-.014a2.6,2.6,0,1,1,5.2-.014v.014a2.6,2.6,0,1,1-5.2.014Zm4.607,0v-.014a2.029,2.029,0,0,0-2.013-2.106,2,2,0,0,0-2,2.092v.014a2.029,2.029,0,0,0,2.013,2.107A2,2,0,0,0,1030.177,292.844Z" transform="translate(-904.133 -255.829)" fill="#fff"/>
  </g>
</svg>
