<svg id="Laureate-Logo" xmlns="http://www.w3.org/2000/svg" width="179.304" height="45.192" viewBox="0 0 179.304 45.192">
  <path id="Path_6748" data-name="Path 6748" d="M26.551,5.875A51.523,51.523,0,0,1,45.079,0s.565,12.089-8.925,24.63h-9.49ZM0,45.192S-.677,29.6,13.445,15.478a48.175,48.175,0,0,1,9.264-7.344v20H33.217a21.69,21.69,0,0,1-1.582,1.695A55.822,55.822,0,0,1,0,45.192Z" transform="translate(0.005)" fill="#fff" fill-rule="evenodd"/>
  <path id="Path_6749" data-name="Path 6749" d="M53.452,36.8H53V6.3h.452Z" transform="translate(6.884 0.818)" fill="#fff"/>
  <path id="Path_6750" data-name="Path 6750" d="M67.5,20.2V6.3H71V17.6h5.084l.452,2.6Z" transform="translate(8.766 0.818)" fill="#fff"/>
  <path id="Path_6751" data-name="Path 6751" d="M88.3,20.309l-1.469-3.5H80.845L79.489,20.2H76.1L82.2,6.3h3.615L91.8,19.858ZM83.9,9.576l-2.034,4.971h4.18Z" transform="translate(9.883 0.818)" fill="#fff"/>
  <path id="Path_6752" data-name="Path 6752" d="M100.594,20.2l-.226-1.356A8.665,8.665,0,0,1,95.4,20.422c-3.276,0-5.2-1.356-5.2-4.632V6.3h3.5v9.038a2.168,2.168,0,0,0,2.486,2.486,5.727,5.727,0,0,0,3.728-1.469V6.3h3.5V20.2Z" transform="translate(11.713 0.818)" fill="#fff"/>
  <path id="Path_6753" data-name="Path 6753" d="M113.173,20.309l-4.067-5.423h-1.017V20.2H104.7V6.3h5.2c3.615,0,5.762,1.469,5.762,4.18a3.869,3.869,0,0,1-3.163,3.841l4.18,5.536ZM109.445,8.56h-1.469v4.18h1.469c1.808,0,2.824-.678,2.824-2.147,0-1.243-.9-2.034-2.824-2.034Z" transform="translate(13.595 0.818)" fill="#fff"/>
  <path id="Path_6754" data-name="Path 6754" d="M116.5,20.2V6.3h9.377V8.673H120v3.05h4.406l.452,2.486H120v3.615h6.1V20.2Z" transform="translate(15.126 0.818)" fill="#fff"/>
  <path id="Path_6755" data-name="Path 6755" d="M137.6,20.309l-1.469-3.5h-5.988L128.789,20.2H125.4l6.1-13.9h3.615L141.1,19.858ZM133.083,9.576l-2.034,4.971h4.18Z" transform="translate(16.282 0.818)" fill="#fff"/>
  <path id="Path_6756" data-name="Path 6756" d="M145.461,8.786V20.2h-3.5V8.786H137.1V6.3h13.106l.452,2.486Z" transform="translate(17.8 0.818)" fill="#fff"/>
  <path id="Path_6757" data-name="Path 6757" d="M150.2,20.2V6.3h9.377V8.673H153.7v3.05h4.406l.452,2.486H153.7v3.615h6.1V20.2Z" transform="translate(19.5 0.818)" fill="#fff"/>
  <g id="Group_7875" data-name="Group 7875" transform="translate(76.492 25.985)">
    <path id="Path_6758" data-name="Path 6758" d="M67.7,23.1h2.373a4.022,4.022,0,0,1,2.824.791,2.99,2.99,0,0,1,1.017,2.147,2.9,2.9,0,0,1-1.695,2.6c1.808.339,2.712,1.356,2.712,2.937a2.844,2.844,0,0,1-1.017,2.26,4.411,4.411,0,0,1-2.824.791H67.7Zm.9.791v4.632h1.243c2.147,0,3.163-.791,3.163-2.26,0-1.582-1.017-2.26-3.163-2.26H68.6Zm0,5.31v4.745h2.373a3.374,3.374,0,0,0,2.26-.678,2.033,2.033,0,0,0,.791-1.695q0-2.373-3.389-2.373H68.6Z" transform="translate(-67.7 -22.987)" fill="#fff"/>
    <path id="Path_6759" data-name="Path 6759" d="M75.7,23.1h2.937a4.21,4.21,0,0,1,2.824.791,2.624,2.624,0,0,1,1.017,2.147,2.849,2.849,0,0,1-2.147,2.824,6.822,6.822,0,0,1,1.582,1.808l2.6,3.954H83.5L81.462,31.46a14.219,14.219,0,0,0-1.582-2.034,3.175,3.175,0,0,0-1.695-.339H76.6v5.536h-.9V23.1Zm.791.791V28.41h1.921a4.155,4.155,0,0,0,2.26-.565,1.784,1.784,0,0,0,.791-1.695,2.033,2.033,0,0,0-.791-1.695,3.368,3.368,0,0,0-2.26-.565Z" transform="translate(-66.662 -22.987)" fill="#fff"/>
    <path id="Path_6760" data-name="Path 6760" d="M88.962,23l5.31,11.637h-.9L91.56,30.683H85.912L84.1,34.637h-.9L88.51,23Zm2.26,6.892-2.486-5.423L86.25,29.892h4.971Z" transform="translate(-65.688 -23)" fill="#fff"/>
    <path id="Path_6761" data-name="Path 6761" d="M99.8,23.678v1.017a5.945,5.945,0,0,0-2.6-.9,2.3,2.3,0,0,0-1.695.678,2.051,2.051,0,0,0-.678,1.582,1.7,1.7,0,0,0,.452,1.243,5.524,5.524,0,0,0,1.695,1.017c.791.339,1.469.565,1.921.791a2.668,2.668,0,0,1,1.017.9,3.266,3.266,0,0,1,.452,1.582,2.844,2.844,0,0,1-1.017,2.26,3.646,3.646,0,0,1-2.373.9,5.417,5.417,0,0,1-2.937-1.017V32.716a5.683,5.683,0,0,0,2.937,1.243,2.3,2.3,0,0,0,1.695-.678,2.231,2.231,0,0,0,.678-1.582,2.171,2.171,0,0,0-.452-1.356,4.975,4.975,0,0,0-1.808-1.13,12.48,12.48,0,0,1-1.921-.791,7.31,7.31,0,0,1-1.017-.9A2.826,2.826,0,0,1,93.7,26.05,2.624,2.624,0,0,1,94.717,23.9a3.646,3.646,0,0,1,2.373-.9A6.017,6.017,0,0,1,99.8,23.678Z" transform="translate(-64.325 -23)" fill="#fff"/>
    <path id="Path_6762" data-name="Path 6762" d="M102.2,23.1V34.624h-.9V23.1Z" transform="translate(-63.339 -22.987)" fill="#fff"/>
    <path id="Path_6763" data-name="Path 6763" d="M105.3,23.1V33.946h5.762v.791H104.4V23.1Z" transform="translate(-62.937 -22.987)" fill="#fff"/>
  </g>
</svg>
