<svg xmlns="http://www.w3.org/2000/svg" width="42.692" height="42.692" viewBox="0 0 42.692 42.692">
  <path id="social-linkedIn-2" d="M38.831,0H3.862A3.862,3.862,0,0,0,0,3.862V38.83a3.862,3.862,0,0,0,3.862,3.862H38.83a3.862,3.862,0,0,0,3.862-3.862V3.862A3.862,3.862,0,0,0,38.831,0ZM13.211,36.863a1.124,1.124,0,0,1-1.124,1.124H7.3a1.124,1.124,0,0,1-1.124-1.124V16.809A1.124,1.124,0,0,1,7.3,15.685h4.784a1.124,1.124,0,0,1,1.124,1.124ZM9.695,13.795A4.545,4.545,0,1,1,14.24,9.25,4.545,4.545,0,0,1,9.695,13.795ZM38.212,36.954a1.033,1.033,0,0,1-1.033,1.033H32.045a1.033,1.033,0,0,1-1.033-1.033V27.547c0-1.4.412-6.149-3.667-6.149-3.164,0-3.806,3.248-3.934,4.706v10.85a1.033,1.033,0,0,1-1.033,1.033H17.412a1.033,1.033,0,0,1-1.033-1.033V16.719a1.033,1.033,0,0,1,1.033-1.033h4.965a1.033,1.033,0,0,1,1.033,1.033v1.75c1.173-1.761,2.917-3.119,6.629-3.119,8.22,0,8.173,7.68,8.173,11.9v9.706Z" fill="#fff"/>
</svg>
