<svg id="medium-seeklogo.com" xmlns="http://www.w3.org/2000/svg" width="43.024" height="43.024" viewBox="0 0 43.024 43.024">
  <rect id="Rectangle_3285" data-name="Rectangle 3285" width="43.024" height="43.024" transform="translate(0 0)" fill="#fff"/>
  <path id="Path_6721" data-name="Path 6721" d="M44.086,62.391a1.107,1.107,0,0,0-.36-.933l-2.668-3.214v-.48h8.284l6.4,14.042,5.629-14.042h7.9v.48l-2.281,2.187a.667.667,0,0,0-.253.64V77.14a.667.667,0,0,0,.253.64l2.228,2.187v.48h-11.2v-.48l2.308-2.24c.227-.227.227-.293.227-.64V64.1l-6.416,16.3h-.867l-7.47-16.3V75.02a1.507,1.507,0,0,0,.414,1.254l3,3.641v.48H40.7v-.48l3-3.641a1.453,1.453,0,0,0,.387-1.254Z" transform="translate(-33.294 -47.835)" fill="#0b1617"/>
</svg>
