<svg id="noun-ai-ethics-2985138" xmlns="http://www.w3.org/2000/svg" width="43.403" height="43.407" viewBox="0 0 43.403 43.407">
  <path id="Path_9049" data-name="Path 9049" d="M337.535,344.521a.516.516,0,0,0-.045-.1.529.529,0,0,0-.023-.052L333.2,338.4l-.006-.007a.524.524,0,0,0-.079-.087.539.539,0,0,0-.11-.074.518.518,0,0,0-.068-.025.534.534,0,0,0-.153-.031c-.005,0-.009,0-.015,0h-7.081a1.356,1.356,0,1,0-2.158,0h-7.037c-.015,0-.027.007-.041.008a.532.532,0,0,0-.069-.008h0a.543.543,0,0,0-.441.228l-4.248,5.968a.508.508,0,0,0-.023.051.515.515,0,0,0-.045.1.505.505,0,0,0-.022.107.5.5,0,0,0-.011.056,4.8,4.8,0,1,0,9.6,0,.493.493,0,0,0-.011-.056.52.52,0,0,0-.022-.108.514.514,0,0,0-.045-.1.525.525,0,0,0-.023-.052l-3.655-5.11h6.651V358.79h-2.713a.543.543,0,1,0,0,1.085h6.51a.543.543,0,0,0,0-1.085h-2.713V339.259h6.534l-3.638,5.111a35.636,35.636,0,0,0-.068.152.508.508,0,0,0-.022.107.5.5,0,0,0-.011.056,4.8,4.8,0,1,0,9.6,0,.5.5,0,0,0-.011-.056.515.515,0,0,0-.022-.108Zm-1.565-.379h-6.409l3.2-4.491Zm-19.589-4.491,3.213,4.491h-6.41Zm.009,8.75a3.722,3.722,0,0,1-3.676-3.173h7.352a3.722,3.722,0,0,1-3.676,3.173Zm16.377,0a3.721,3.721,0,0,1-3.676-3.173h7.352A3.722,3.722,0,0,1,332.768,348.4Z" transform="translate(-302.928 -326.238)" fill="#00c8db"/>
  <path id="Path_9050" data-name="Path 9050" d="M162.86,142.244a.543.543,0,1,0,0-1.085h-4.883v-7.6H160.8a1.356,1.356,0,1,0,0-1.085h-2.827v-4.34a2.716,2.716,0,0,0-2.713-2.713h-4.338v-4.883a.543.543,0,1,0-1.085,0v4.883h-7.6v-4.883a.543.543,0,1,0-1.085,0v4.883h-7.6V122.6a1.356,1.356,0,1,0-1.085,0v2.827h-4.343a2.716,2.716,0,0,0-2.713,2.713v4.34h-4.883a.543.543,0,0,0,0,1.085h4.883v7.6h-4.883a.543.543,0,0,0,0,1.085h4.883v7.6H122.6a1.356,1.356,0,1,0,0,1.085h2.827v4.34a2.716,2.716,0,0,0,2.713,2.713h4.34v2.833a1.356,1.356,0,1,0,1.085,0v-2.83h7.6v4.883a.543.543,0,1,0,1.085,0v-4.883h7.6v4.883a.543.543,0,1,0,1.085,0v-4.883h4.34a2.716,2.716,0,0,0,2.713-2.713v-4.34h4.883a.543.543,0,1,0,0-1.085h-4.883v-7.6Zm-5.968,13.021a1.629,1.629,0,0,1-1.628,1.628H128.138a1.629,1.629,0,0,1-1.628-1.628V128.138a1.629,1.629,0,0,1,1.628-1.628h27.127a1.629,1.629,0,0,1,1.628,1.628Z" transform="translate(-120 -120)" fill="#00c8db"/>
</svg>
