<svg id="noun-ai-training-data-2985134" xmlns="http://www.w3.org/2000/svg" width="44.338" height="50.546" viewBox="0 0 44.338 50.546">
  <path id="Path_9042" data-name="Path 9042" d="M492.11,107.521a.6.6,0,0,0,.352.549l4.678,2.137a.606.606,0,0,0,.5,0l4.678-2.137a.6.6,0,0,0,0-1.1l-2.336-1.067,2.336-1.067a.6.6,0,0,0,0-1.1l-2.336-1.068,2.336-1.067a.6.6,0,0,0,0-1.1l-4.678-2.137a.607.607,0,0,0-.5,0l-4.678,2.137a.6.6,0,0,0,0,1.1l2.336,1.067-2.336,1.068a.6.6,0,0,0,0,1.1l2.336,1.067-2.336,1.067A.6.6,0,0,0,492.11,107.521Zm8.508-6.464-2.086.953-.726.332-.415.189-.415-.189-.726-.332-2.086-.953,3.226-1.474Zm-3.477,2.686a.606.606,0,0,0,.5,0l.89-.406,2.086.953-2.086.953-.726.332-.415.189-.415-.189-.726-.332-2.086-.953,2.086-.953Zm0,3.232a.606.606,0,0,0,.5,0l.89-.407,2.086.953L497.391,109l-3.226-1.474,2.086-.953Z" transform="translate(-475.364 -98.316)" fill="#00c8db"/>
  <path id="Path_9043" data-name="Path 9043" d="M841.522,104.3a.6.6,0,0,0-.352-.549l-2.336-1.068,2.336-1.067a.6.6,0,0,0,0-1.1l-4.678-2.137a.607.607,0,0,0-.5,0l-4.678,2.138a.6.6,0,0,0,0,1.1l2.336,1.067-2.336,1.067a.6.6,0,0,0,0,1.1l2.336,1.067-2.336,1.067a.6.6,0,0,0,0,1.1l4.678,2.137a.608.608,0,0,0,.5,0l4.678-2.137a.6.6,0,0,0,0-1.1l-2.336-1.067,2.336-1.067a.6.6,0,0,0,.352-.548Zm-5.281,4.706-3.226-1.474,2.086-.953.89.407a.606.606,0,0,0,.5,0l.89-.407,2.086.953Zm.415-3.422-.415.189-.415-.189-.726-.332-2.086-.953,2.086-.953.89.406a.606.606,0,0,0,.5,0l.89-.406,2.086.953-2.086.953Zm-.415-5.991,3.227,1.474-2.086.953-.726.332-.415.19-.415-.189-.726-.332-2.086-.953Z" transform="translate(-797.184 -98.327)" fill="#00c8db"/>
  <path id="Path_9044" data-name="Path 9044" d="M164.211,110.265a.61.61,0,0,0,.251-.054l4.678-2.137a.6.6,0,0,0,0-1.1l-2.336-1.067,2.336-1.067a.6.6,0,0,0,0-1.1l-2.336-1.068,2.336-1.067a.6.6,0,0,0,0-1.1l-4.678-2.137a.607.607,0,0,0-.5,0l-4.678,2.138a.6.6,0,0,0,0,1.1l2.337,1.067-2.337,1.067a.6.6,0,0,0,0,1.1l2.336,1.067-2.336,1.067a.6.6,0,0,0,0,1.1l4.678,2.137a.616.616,0,0,0,.251.054Zm0-10.679,3.226,1.474-2.086.953-.726.332-.415.19-.415-.189-.726-.332-2.086-.953Zm-.251,4.16a.606.606,0,0,0,.5,0l.89-.406,2.086.953-2.086.953-.726.332-.415.189-.415-.189-.726-.332-2.086-.953,2.086-.953Zm0,3.232a.606.606,0,0,0,.5,0l.89-.407,2.086.953L164.211,109l-3.226-1.474,2.086-.953Z" transform="translate(-158.93 -98.319)" fill="#00c8db"/>
  <path id="Path_9045" data-name="Path 9045" d="M286.378,360a.6.6,0,0,0-.6.6v2.412a1.811,1.811,0,0,1-1.809,1.809h-7.841a3.019,3.019,0,0,0-3.016,3.016v1.809h-3.016V360.6a.6.6,0,1,0-1.206,0v9.047h-3.016v-1.809a3.019,3.019,0,0,0-3.016-3.016h-7.841a1.811,1.811,0,0,1-1.809-1.809V360.6a.6.6,0,1,0-1.206,0v2.412a3.019,3.019,0,0,0,3.016,3.016h7.841a1.811,1.811,0,0,1,1.809,1.809v1.809a3.019,3.019,0,0,0-3.016,3.016h-1.809a.6.6,0,1,0,0,1.206h1.809v3.016h-1.809a.6.6,0,1,0,0,1.206h1.809v3.016h-1.809a.6.6,0,1,0,0,1.206h1.809a3.019,3.019,0,0,0,3.016,3.016v1.809a.6.6,0,1,0,1.206,0v-1.809h3.016v10l-1.383-1.383a.6.6,0,0,0-.853.853l2.412,2.412a.6.6,0,0,0,.853,0l2.412-2.412a.6.6,0,0,0-.853-.853l-1.383,1.383v-10h3.016v1.809a.6.6,0,1,0,1.206,0v-1.809a3.019,3.019,0,0,0,3.016-3.016h1.809a.6.6,0,1,0,0-1.206h-1.809v-3.016h1.809a.6.6,0,1,0,0-1.206h-1.809v-3.016h1.809a.6.6,0,1,0,0-1.206h-1.809a3.019,3.019,0,0,0-3.016-3.016v-1.809a1.811,1.811,0,0,1,1.809-1.809h7.841a3.019,3.019,0,0,0,3.016-3.016V360.6a.6.6,0,0,0-.6-.6Zm-10.253,12.666v9.65a1.811,1.811,0,0,1-1.809,1.809h-9.65a1.811,1.811,0,0,1-1.809-1.809v-9.65a1.811,1.811,0,0,1,1.809-1.809h9.65A1.811,1.811,0,0,1,276.125,372.666Z" transform="translate(-247.322 -346.848)" fill="#00c8db"/>
  <path id="Path_9046" data-name="Path 9046" d="M534.634,636H528.6a.6.6,0,0,0-.6.6v6.031a.6.6,0,0,0,.6.6h6.031a.6.6,0,0,0,.6-.6V636.6A.6.6,0,0,0,534.634,636Z" transform="translate(-509.451 -608.976)" fill="#00c8db"/>
</svg>
