<svg id="noun-artificial-intelligence-2985130" xmlns="http://www.w3.org/2000/svg" width="49.854" height="49.859" viewBox="0 0 49.854 49.859">
  <path id="Path_9038" data-name="Path 9038" d="M646.343,653.842a2.744,2.744,0,0,1-3.195-.065,2.755,2.755,0,0,0-1.961.812.623.623,0,0,0,.881.881,1.563,1.563,0,0,1,2.159,0,1.527,1.527,0,0,1,0,2.16.623.623,0,1,0,.881.881,2.735,2.735,0,0,0,.5-3.221,1.566,1.566,0,0,1,1.817.244.623.623,0,0,0,.881-.881A2.754,2.754,0,0,0,646.343,653.842Z" transform="translate(-613.948 -626.058)" fill="#00c8db"/>
  <path id="Path_9039" data-name="Path 9039" d="M361.974,350.768a4.54,4.54,0,0,0-.492-.444,3.014,3.014,0,0,0-.88-5.348,4.7,4.7,0,0,0-.154-3.043,4.425,4.425,0,0,0-2.624-2.544,4.732,4.732,0,0,0-2.881-.112,3.171,3.171,0,0,0-.236-1.478,2.873,2.873,0,0,0-1.693-1.611,3.061,3.061,0,0,0-2.826.362,3.02,3.02,0,0,0-.659.643,3.018,3.018,0,0,0-.659-.643,3.061,3.061,0,0,0-2.826-.362,2.873,2.873,0,0,0-1.693,1.611,3.168,3.168,0,0,0-.236,1.478,4.728,4.728,0,0,0-2.881.112,4.425,4.425,0,0,0-2.624,2.544,4.705,4.705,0,0,0-.154,3.043,3.014,3.014,0,0,0-.88,5.348,4.547,4.547,0,0,0-.492.444h0a4.583,4.583,0,0,0,1.829,7.507,3.682,3.682,0,0,0,.25,2.325,3.49,3.49,0,0,0,1.851,1.8,3.617,3.617,0,0,0,2.891-.007,3.645,3.645,0,0,0,2.542,1.023,3.967,3.967,0,0,0,1.444-.277,3.489,3.489,0,0,0,1.64-1.342,3.49,3.49,0,0,0,1.639,1.342,3.973,3.973,0,0,0,1.444.277,3.645,3.645,0,0,0,2.542-1.023,3.618,3.618,0,0,0,2.89.008,3.49,3.49,0,0,0,1.852-1.8,3.681,3.681,0,0,0,.25-2.325,4.583,4.583,0,0,0,1.829-7.507s0,0,0,0Zm-14.538,11.207a2.457,2.457,0,0,1-2.91-.747.623.623,0,0,0-.815-.143,2.363,2.363,0,0,1-2.225.16A2.232,2.232,0,0,1,340.3,360.1a2.419,2.419,0,0,1-.022-2.006.623.623,0,0,0-.462-.866,3.337,3.337,0,0,1-1.836-5.594,3.387,3.387,0,0,1,1.218-.811.623.623,0,0,0-.133-1.2,1.762,1.762,0,0,1-1.519-1.75,1.782,1.782,0,0,1,1.771-1.778.623.623,0,0,0,.554-.9,3.367,3.367,0,0,1-.1-2.806,3.163,3.163,0,0,1,1.875-1.819,3.384,3.384,0,0,1,3.284.51.623.623,0,0,0,.858-.9,1.784,1.784,0,0,1-.285-1.905,1.646,1.646,0,0,1,.958-.912,1.828,1.828,0,0,1,1.691.206,1.784,1.784,0,0,1,.754,1.455v16.819a3.2,3.2,0,0,0-1.984-.7,3.234,3.234,0,0,0-3.23,3.23.623.623,0,1,0,1.246,0,1.984,1.984,0,0,1,3.968,0v1.336A2.414,2.414,0,0,1,347.436,361.975Zm11.8-4.751a.623.623,0,0,0-.462.866,2.418,2.418,0,0,1-.022,2.006,2.232,2.232,0,0,1-1.187,1.149,2.363,2.363,0,0,1-2.224-.16.624.624,0,0,0-.815.143,2.457,2.457,0,0,1-2.91.747,2.414,2.414,0,0,1-1.468-2.269V347.252a3.2,3.2,0,0,0,1.984.7,3.234,3.234,0,0,0,3.23-3.23.623.623,0,0,0-1.246,0,1.984,1.984,0,0,1-3.968,0v-5.7a1.775,1.775,0,0,1,1.78-1.778,1.979,1.979,0,0,1,.665.117,1.646,1.646,0,0,1,.958.912,1.784,1.784,0,0,1-.285,1.905.623.623,0,0,0,.858.9,3.383,3.383,0,0,1,3.284-.51,3.164,3.164,0,0,1,1.875,1.819,3.368,3.368,0,0,1-.1,2.807.623.623,0,0,0,.554.9,1.782,1.782,0,0,1,1.771,1.778,1.762,1.762,0,0,1-1.519,1.75.623.623,0,0,0-.133,1.2,3.386,3.386,0,0,1,1.218.811,3.336,3.336,0,0,1-1.836,5.594Z" transform="translate(-324.601 -324.779)" fill="#00c8db"/>
  <path id="Path_9040" data-name="Path 9040" d="M435.409,483.033a.623.623,0,1,0,1.246,0,2.769,2.769,0,0,0-1.274-2.326l.01-.008a2.777,2.777,0,0,0,0-3.922.623.623,0,0,0-.881.881,1.527,1.527,0,1,1-2.16,2.16.623.623,0,0,0-.881.881,2.764,2.764,0,0,0,1.961.811,2.808,2.808,0,0,0,.319-.03.6.6,0,0,0,.133.027,1.529,1.529,0,0,1,1.527,1.527Z" transform="translate(-415.121 -458.076)" fill="#00c8db"/>
  <path id="Path_9041" data-name="Path 9041" d="M169.23,145.55a.623.623,0,1,0,0-1.246h-5.609v-8.724h3.247a1.558,1.558,0,1,0,0-1.246h-3.247v-4.985a3.12,3.12,0,0,0-3.116-3.116h-4.983v-5.609a.623.623,0,1,0-1.246,0v5.609h-8.724v-5.609a.623.623,0,1,0-1.246,0v5.609h-8.724v-3.247a1.558,1.558,0,1,0-1.246,0v3.247h-4.988a3.12,3.12,0,0,0-3.116,3.116v4.985h-5.609a.623.623,0,1,0,0,1.246h5.609V144.3h-5.609a.623.623,0,0,0,0,1.246h5.609v8.724h-3.247a1.558,1.558,0,1,0,0,1.246h3.247v4.985a3.12,3.12,0,0,0,3.116,3.116h4.985v3.254a1.557,1.557,0,1,0,1.246,0v-3.251H144.3v5.609a.623.623,0,1,0,1.246,0v-5.609h8.724v5.609a.623.623,0,0,0,1.246,0v-5.609h4.985a3.12,3.12,0,0,0,3.116-3.116v-4.985h5.609a.623.623,0,1,0,0-1.246h-5.609V145.55Zm-6.855,14.956a1.872,1.872,0,0,1-1.87,1.87H129.348a1.872,1.872,0,0,1-1.87-1.87V129.348a1.872,1.872,0,0,1,1.87-1.87h31.159a1.872,1.872,0,0,1,1.87,1.87Z" transform="translate(-120 -120)" fill="#00c8db"/>
</svg>
