<svg id="Group_7948" data-name="Group 7948" xmlns="http://www.w3.org/2000/svg" width="295" height="296" viewBox="0 0 295 296">
  <ellipse id="Ellipse_2155" data-name="Ellipse 2155" cx="147.5" cy="148" rx="147.5" ry="148" fill="#742698"/>
  <g id="Group_7947" data-name="Group 7947" transform="translate(4408.259 8362)">
    <g id="Group_7931" data-name="Group 7931" transform="translate(-4386.259 -8284)">
      <rect id="Rectangle_4328" data-name="Rectangle 4328" width="139.892" height="139.201" transform="translate(55.953)" fill="#fff"/>
      <path id="Path_4" data-name="Path 4" d="M931.853,111.715A55.609,55.609,0,1,0,875.9,56.108a55.829,55.829,0,0,0,55.953,55.608Z" transform="translate(-875.9 13.844)" fill="#742698"/>
      <path id="Path_4-2" data-name="Path 4" d="M931.853,111.715A55.609,55.609,0,1,0,875.9,56.108a55.829,55.829,0,0,0,55.953,55.608Z" transform="translate(-736.008 13.844)" fill="#742698"/>
    </g>
    <path id="Path_6779" data-name="Path 6779" d="M451.616,20.668l2.845-2.873-2.873-2.873,1.562-3.738-3.738-1.562V5.577H445.34l-1.534-3.766L440.04,3.373,437.167.5l-2.845,2.873-3.766-1.562-1.534,3.766h-4.073V9.621l-3.738,1.562,1.562,3.738L419.9,17.795l2.845,2.873-1.534,3.738,3.738,1.562v4.045h4.073l1.534,3.766,3.766-1.562,2.845,2.873,2.873-2.873,3.766,1.562,1.534-3.766h4.073V25.968l3.738-1.562Z" transform="translate(-4729.837 -8232.232)" fill="#21c8db"/>
    <path id="Path_6778" data-name="Path 6778" d="M681.027,19.357l1.534-1.562-1.534-1.562,1.2-1.813-1.813-1.227.837-2.008-2.036-.837L679.66,8.2l-2.148-.446V5.577h-2.2l-.418-2.148-2.148.418-.837-2.036-2.036.837L668.642.835l-1.813,1.227L665.267.5l-1.534,1.562L661.891.835l-1.2,1.813-2.036-.837-.837,2.036-2.148-.418-.418,2.148h-2.2V7.753L650.9,8.2l.418,2.148-2.008.837.837,2.008-1.841,1.227,1.227,1.813L648,17.795l1.534,1.562-1.227,1.813,1.841,1.227-.837,2.008,2.008.837L650.9,27.39l2.148.446v2.176h2.2l.418,2.148,2.148-.418.837,2.036,2.036-.837,1.2,1.813,1.841-1.227,1.534,1.562,1.562-1.562,1.813,1.227,1.227-1.813,2.036.837.837-2.036,2.148.418.418-2.148h2.2V27.837l2.148-.446-.446-2.148,2.036-.837-.837-2.008,1.813-1.227Z" transform="translate(-4877.258 -8262.978)" fill="#00c8db"/>
    <path id="Path_6780" data-name="Path 6780" d="M221.312,22.871l5.049-5.077-5.049-5.077V5.577h-7.169L209.095.5l-5.077,5.077h-7.169v7.141L191.8,17.795l5.049,5.077v7.141h7.169l5.077,5.077,5.049-5.077h7.169Z" transform="translate(-4421.058 -8201.487)" fill="#ff0070"/>
    <g id="Group_7941" data-name="Group 7941" transform="translate(-4245.399 -8231.732)">
      <path id="Path_4-3" data-name="Path 4" d="M893.195,35.089A17.295,17.295,0,1,0,875.9,17.795a17.309,17.309,0,0,0,17.295,17.295Z" transform="translate(-875.9 -0.5)" fill="#0b1617"/>
    </g>
    <g id="Group_7944" data-name="Group 7944" transform="translate(-4210.042 -8231.732)">
      <path id="Path_4-4" data-name="Path 4" d="M893.195,35.089A17.295,17.295,0,1,0,875.9,17.795a17.309,17.309,0,0,0,17.295,17.295Z" transform="translate(-875.9 -0.5)" fill="#fd1370"/>
    </g>
    <g id="Group_7944-2" data-name="Group 7944" transform="translate(-4345.322 -8231.732)">
      <path id="Path_4-5" data-name="Path 4" d="M893.194,35.089a17.295,17.295,0,1,1,17.295-17.295,17.309,17.309,0,0,1-17.295,17.295Z" transform="translate(-875.9 -0.5)" fill="#00c8db"/>
    </g>
    <g id="Group_7942" data-name="Group 7942" transform="translate(-4326.106 -8262.478)">
      <path id="Path_4-6" data-name="Path 4" d="M893.194,35.089a17.295,17.295,0,1,1,17.295-17.295,17.309,17.309,0,0,1-17.295,17.295Z" transform="translate(-875.9 -0.5)" fill="#fd1370"/>
    </g>
    <g id="Group_7943" data-name="Group 7943" transform="translate(-4326.106 -8200.987)">
      <path id="Path_4-7" data-name="Path 4" d="M893.194,35.089a17.295,17.295,0,1,1,17.295-17.295,17.309,17.309,0,0,1-17.295,17.295Z" transform="translate(-875.9 -0.5)" fill="#0b1617"/>
    </g>
  </g>
</svg>
