<svg id="Group_6475" data-name="Group 6475" xmlns="http://www.w3.org/2000/svg" width="27.784" height="27.784" viewBox="0 0 27.784 27.784">
  <circle id="Ellipse_1119" data-name="Ellipse 1119" cx="4.647" cy="4.647" r="4.647" transform="translate(9.245 9.303)" fill="#fff"/>
  <path id="Path_6705" data-name="Path 6705" d="M93.368,84.579a13.351,13.351,0,0,0-.639-3.313,6.259,6.259,0,0,0-1.569-2.441,7,7,0,0,0-2.441-1.569,9.841,9.841,0,0,0-3.313-.639c-1.569-.116-2.034-.116-5.813-.116s-4.243,0-5.813.116a13.35,13.35,0,0,0-3.313.639,6.259,6.259,0,0,0-2.441,1.569,7,7,0,0,0-1.569,2.441,9.842,9.842,0,0,0-.639,3.313c-.116,1.453-.116,1.976-.116,5.813,0,3.778,0,4.243.116,5.813a13.351,13.351,0,0,0,.639,3.313,5.665,5.665,0,0,0,1.569,2.441,7,7,0,0,0,2.441,1.569,9.842,9.842,0,0,0,3.313.639c1.453.116,1.976.116,5.813.116s4.243,0,5.813-.116a13.351,13.351,0,0,0,3.313-.639,6.26,6.26,0,0,0,2.441-1.569,7,7,0,0,0,1.569-2.441,9.842,9.842,0,0,0,.639-3.313c.116-1.453.116-1.976.116-5.813C93.484,86.614,93.484,86.149,93.368,84.579ZM79.592,97.6a7.149,7.149,0,1,1,7.149-7.149A7.22,7.22,0,0,1,79.592,97.6Zm7.44-12.962a1.686,1.686,0,1,1,0-3.371,1.767,1.767,0,0,1,1.686,1.686A1.725,1.725,0,0,1,87.032,84.638Z" transform="translate(-65.7 -76.5)" fill="#fff"/>
</svg>
