<svg id="Group_6475" data-name="Group 6475" xmlns="http://www.w3.org/2000/svg" width="42.692" height="42.692" viewBox="0 0 42.692 42.692">
  <circle id="Ellipse_1119" data-name="Ellipse 1119" cx="7.141" cy="7.141" r="7.141" transform="translate(14.206 14.295)" fill="#fff"/>
  <path id="Path_6705" data-name="Path 6705" d="M108.214,88.915a20.515,20.515,0,0,0-.982-5.091,9.618,9.618,0,0,0-2.411-3.751,10.754,10.754,0,0,0-3.751-2.411,15.122,15.122,0,0,0-5.091-.982c-2.412-.179-3.126-.179-8.931-.179s-6.52,0-8.932.179a20.513,20.513,0,0,0-5.091.982,9.617,9.617,0,0,0-3.751,2.411,10.755,10.755,0,0,0-2.412,3.751,15.124,15.124,0,0,0-.982,5.091c-.179,2.233-.179,3.037-.179,8.931,0,5.805,0,6.52.179,8.931a20.516,20.516,0,0,0,.982,5.091,8.7,8.7,0,0,0,2.412,3.751,10.755,10.755,0,0,0,3.751,2.411,15.122,15.122,0,0,0,5.091.982c2.233.179,3.037.179,8.932.179s6.52,0,8.931-.179a20.516,20.516,0,0,0,5.091-.982,9.619,9.619,0,0,0,3.751-2.411,10.756,10.756,0,0,0,2.411-3.751,15.122,15.122,0,0,0,.982-5.091c.179-2.233.179-3.037.179-8.931C108.392,92.041,108.392,91.326,108.214,88.915ZM87.046,108.921A10.986,10.986,0,1,1,98.032,97.936,11.094,11.094,0,0,1,87.046,108.921ZM98.478,89a2.59,2.59,0,0,1,0-5.18,2.715,2.715,0,0,1,2.59,2.59A2.651,2.651,0,0,1,98.478,89Z" transform="translate(-65.7 -76.5)" fill="#fff"/>
</svg>
