<svg xmlns="http://www.w3.org/2000/svg" width="27.784" height="27.784" viewBox="0 0 27.784 27.784">
  <path id="social-linkedIn-2" d="M25.271,0H2.513A2.513,2.513,0,0,0,0,2.513V25.271a2.513,2.513,0,0,0,2.513,2.513H25.271a2.513,2.513,0,0,0,2.513-2.513V2.513A2.513,2.513,0,0,0,25.271,0ZM8.6,23.99a.731.731,0,0,1-.731.731H4.753a.731.731,0,0,1-.731-.731V10.939a.731.731,0,0,1,.731-.731H7.866a.731.731,0,0,1,.731.731ZM6.309,8.978A2.958,2.958,0,1,1,9.267,6.02,2.958,2.958,0,0,1,6.309,8.978ZM24.868,24.049a.673.673,0,0,1-.672.672H20.855a.673.673,0,0,1-.672-.672V17.928c0-.913.268-4-2.387-4-2.059,0-2.477,2.114-2.56,3.063v7.061a.672.672,0,0,1-.672.672H11.331a.673.673,0,0,1-.672-.672V10.88a.673.673,0,0,1,.672-.672h3.231a.673.673,0,0,1,.672.672v1.139c.763-1.146,1.9-2.03,4.314-2.03,5.35,0,5.319,5,5.319,7.744v6.317Z" fill="#fff"/>
</svg>
