<svg xmlns="http://www.w3.org/2000/svg" width="28" height="28" viewBox="0 0 28 28">
  <g id="medium-seeklogo.com" transform="translate(-0.355 0.116)">
    <rect id="Rectangle_3285" data-name="Rectangle 3285" width="28" height="28" transform="translate(0.355 -0.116)" fill="#fff"/>
    <path id="Path_6721" data-name="Path 6721" d="M42.9,60.776a.72.72,0,0,0-.234-.607l-1.736-2.092v-.312h5.391L50.49,66.9l3.663-9.138h5.139v.312L57.808,59.5a.434.434,0,0,0-.165.417V70.374a.434.434,0,0,0,.165.417l1.45,1.423v.312H51.965v-.312l1.5-1.458c.148-.148.148-.191.148-.417V61.886L49.439,72.491h-.564L44.014,61.886v7.108a.98.98,0,0,0,.269.816l1.953,2.369v.312H40.7v-.312l1.953-2.369a.946.946,0,0,0,.252-.816Z" transform="translate(-35.524 -51.418)" fill="#0b1617"/>
  </g>
</svg>
