<svg id="noun-natural-language-processing-2985136" xmlns="http://www.w3.org/2000/svg" width="53.769" height="43.208" viewBox="0 0 53.769 43.208">
  <path id="Path_9032" data-name="Path 9032" d="M130.571,437.923a.64.64,0,0,0-.64.64v5.121a1.922,1.922,0,0,1-1.92,1.92H109.658a1.907,1.907,0,0,0-1.358.563l-4.613,4.613v-3.256a1.922,1.922,0,0,0-1.92-1.92h-2.56a1.922,1.922,0,0,1-1.92-1.92V423.2a1.922,1.922,0,0,1,1.92-1.92h13.442a.64.64,0,0,0,0-1.28H99.206a3.2,3.2,0,0,0-3.2,3.2v20.484a3.2,3.2,0,0,0,3.2,3.2h2.56a.641.641,0,0,1,.64.64v4.8a.64.64,0,0,0,1.093.453l5.706-5.706a.636.636,0,0,1,.453-.188H128.01a3.2,3.2,0,0,0,3.2-3.2v-5.121a.64.64,0,0,0-.64-.64Z" transform="translate(-96.005 -409.758)" fill="#00c8db"/>
  <path id="Path_9033" data-name="Path 9033" d="M476.006,228H447.2a3.2,3.2,0,0,0-3.2,3.2v5.121a.64.64,0,1,0,1.28,0V231.2a1.922,1.922,0,0,1,1.92-1.92h28.8a1.922,1.922,0,0,1,1.92,1.92v20.484a1.922,1.922,0,0,1-1.92,1.92h-2.56a1.922,1.922,0,0,0-1.92,1.92v3.256l-4.613-4.613a1.907,1.907,0,0,0-1.358-.563h-2.99a.64.64,0,0,0,0,1.28h2.99a.636.636,0,0,1,.453.188l5.706,5.706a.64.64,0,0,0,1.093-.453v-4.8a.641.641,0,0,1,.64-.64h2.56a3.2,3.2,0,0,0,3.2-3.2V231.2a3.2,3.2,0,0,0-3.2-3.2Z" transform="translate(-425.437 -228)" fill="#00c8db"/>
  <path id="Path_9034" data-name="Path 9034" d="M535.041,504h-6.4a.64.64,0,0,0-.64.64v6.4a.64.64,0,0,0,.64.64h6.4a.64.64,0,0,0,.64-.64v-6.4A.64.64,0,0,0,535.041,504Z" transform="translate(-504.956 -489.277)" fill="#00c8db"/>
  <path id="Path_9035" data-name="Path 9035" d="M417.764,387.363a.64.64,0,0,0-.64-.64H415.2v-3.2h1.92a.64.64,0,0,0,0-1.28H415.2v-3.2h1.92a.64.64,0,0,0,0-1.28H415.2a3.2,3.2,0,0,0-3.2-3.2v-1.92a.64.64,0,0,0-1.28,0v1.92h-3.2v-1.92a.64.64,0,1,0-1.28,0v1.92h-3.2v-1.92a.64.64,0,0,0-1.28,0v1.92a3.2,3.2,0,0,0-3.2,3.2h-1.92a.64.64,0,0,0,0,1.28h1.92v3.2h-1.92a.64.64,0,0,0,0,1.28h1.92v3.2h-1.92a.64.64,0,0,0,0,1.28h1.92a3.2,3.2,0,0,0,3.2,3.2v1.92a.64.64,0,1,0,1.28,0V391.2h3.2v1.92a.64.64,0,1,0,1.28,0V391.2h3.2v1.92a.64.64,0,1,0,1.28,0V391.2a3.2,3.2,0,0,0,3.2-3.2h1.92A.64.64,0,0,0,417.764,387.363Zm-3.841.64a1.922,1.922,0,0,1-1.92,1.92H401.761a1.922,1.922,0,0,1-1.92-1.92V377.761a1.922,1.922,0,0,1,1.92-1.92H412a1.922,1.922,0,0,1,1.92,1.92Z" transform="translate(-379.997 -364.319)" fill="#00c8db"/>
</svg>
