<svg id="noun-computer-vision-2985143" xmlns="http://www.w3.org/2000/svg" width="45.719" height="45.719" viewBox="0 0 45.719 45.719">
  <path id="Path_9036" data-name="Path 9036" d="M153.637,119.1s0-.007,0-.01a.533.533,0,0,0,0-.457s0-.007,0-.01a21.494,21.494,0,0,0-6.6-7.934l3.077-3.077a1.4,1.4,0,1,0-.788-.788l-3.2,3.2a26.1,26.1,0,0,0-8.157-3.647l4.013-4.013a.533.533,0,0,0,.069-.1,1.4,1.4,0,1,0-.754-.754.538.538,0,0,0-.1.069l-4.508,4.508a28.736,28.736,0,0,0-5.3-.588V98.667a1.394,1.394,0,1,0-1.115,0v6.826a28.731,28.731,0,0,0-5.3.588l-4.508-4.508a.533.533,0,0,0-.1-.069,1.4,1.4,0,1,0-.754.754.53.53,0,0,0,.069.1l4.013,4.013a26.1,26.1,0,0,0-8.157,3.647l-3.2-3.2a1.4,1.4,0,1,0-.789.788l3.077,3.077a21.494,21.494,0,0,0-6.6,7.934s0,.007,0,.01a.533.533,0,0,0,0,.457s0,.007,0,.01a21.494,21.494,0,0,0,6.6,7.934l-3.077,3.077a1.4,1.4,0,1,0,.788.788l3.2-3.2a26.1,26.1,0,0,0,8.157,3.647l-4.013,4.013a.533.533,0,0,0-.069.1,1.4,1.4,0,1,0,.754.754.537.537,0,0,0,.1-.069l4.508-4.508a28.737,28.737,0,0,0,5.3.588v6.826a1.394,1.394,0,1,0,1.115,0V132.22a28.731,28.731,0,0,0,5.3-.588l4.508,4.508a.532.532,0,0,0,.1.069,1.4,1.4,0,1,0,.754-.754.531.531,0,0,0-.069-.1l-4.013-4.013a26.1,26.1,0,0,0,8.157-3.647l3.2,3.2a1.4,1.4,0,1,0,.789-.788l-3.077-3.077a21.494,21.494,0,0,0,6.6-7.934Zm-1.426-.8H138.08v-2.788h3.9a.557.557,0,0,0,.394-.163l3.869-3.869a20.579,20.579,0,0,1,5.965,6.821Zm-6.886-7.476-3.573,3.573h-3.672a2.791,2.791,0,0,0-2.788-2.788v-2.557l1.748-1.748A25.146,25.146,0,0,1,145.324,110.823ZM126.371,124.99a1.674,1.674,0,0,1-1.673-1.673V114.4a1.674,1.674,0,0,1,1.673-1.673h8.921a1.674,1.674,0,0,1,1.673,1.673v8.921a1.674,1.674,0,0,1-1.673,1.673Zm9.364-17.958-1.395,1.395a.557.557,0,0,0-.164.394v2.788h-2.788v-5a27.723,27.723,0,0,1,4.346.424Zm-5.461-.424v5h-2.788V108.82a.557.557,0,0,0-.163-.394l-1.395-1.395a27.715,27.715,0,0,1,4.346-.424Zm-5.65.7,1.748,1.748v2.557a2.791,2.791,0,0,0-2.788,2.788h-3.672l-3.573-3.573A25.146,25.146,0,0,1,124.623,107.3Zm-9.207,4.175,3.869,3.869a.557.557,0,0,0,.394.163h3.9V118.3H109.452a20.583,20.583,0,0,1,5.965-6.821Zm-5.965,7.936h14.131V122.2h-3.9a.557.557,0,0,0-.394.163l-3.869,3.869a20.579,20.579,0,0,1-5.965-6.821Zm6.886,7.476,3.573-3.573h3.672a2.791,2.791,0,0,0,2.788,2.788v2.557l-1.748,1.748A25.145,25.145,0,0,1,116.338,126.89Zm9.59,3.791,1.395-1.395a.557.557,0,0,0,.164-.394V126.1h2.788v5a27.719,27.719,0,0,1-4.346-.424Zm5.461.424v-5h2.788v2.788a.557.557,0,0,0,.163.394l1.395,1.395a27.717,27.717,0,0,1-4.346.424Zm5.65-.7-1.748-1.748V126.1a2.791,2.791,0,0,0,2.788-2.788h3.672l3.573,3.573A25.146,25.146,0,0,1,137.04,130.409Zm9.207-4.175-3.869-3.869a.557.557,0,0,0-.394-.163h-3.9v-2.788h14.131a20.583,20.583,0,0,1-5.965,6.821Z" transform="translate(-107.972 -95.997)" fill="#00c8db"/>
  <path id="Path_9037" data-name="Path 9037" d="M556.46,542.23a2.23,2.23,0,1,1-2.23-2.23,2.23,2.23,0,0,1,2.23,2.23" transform="translate(-531.369 -519.37)" fill="#00c8db"/>
</svg>
