<svg id="noun-quantum-computing-4116531" xmlns="http://www.w3.org/2000/svg" width="51.755" height="42.728" viewBox="0 0 51.755 42.728">
  <path id="Path_9047" data-name="Path 9047" d="M145.547,107.047V82.784a2.616,2.616,0,0,0-2.612-2.612h-6.306c-.01.065-.019.129-.03.2-.035.209-.074.422-.116.638q.313.107.611.219c.142.053.278.107.414.161h5.429a1.4,1.4,0,0,1,1.4,1.4v24.262h-16.25v1.409h-8.414v-1.409h-16.25V82.784a1.4,1.4,0,0,1,1.4-1.4h5.429c.136-.054.272-.108.414-.161q.3-.111.611-.219-.064-.324-.116-.638c-.011-.067-.02-.13-.03-.2h-6.307a2.616,2.616,0,0,0-2.612,2.612v24.262H98v3.415a4.222,4.222,0,0,0,4.217,4.217h43.32a4.222,4.222,0,0,0,4.217-4.217v-3.415h-4.207Zm2.994,3.415a3.007,3.007,0,0,1-3,3H102.216a3.007,3.007,0,0,1-3-3v-2.2h19.244v1.409H129.3V108.26h19.244v2.2Zm-21.82-26.284-1.329.816-.26-.108-.363-1.517h-1.785l-.363,1.517-.26.108-1.329-.816-1.262,1.262.816,1.329-.108.26-1.517.363v1.785l1.517.363.108.26-.816,1.329,1.262,1.262,1.329-.816.26.108.363,1.517h1.785l.363-1.517.26-.108,1.329.816,1.262-1.262-.816-1.329.107-.26,1.517-.363V87.392l-1.517-.363-.107-.26.816-1.329Zm.589,4.108-.918.22-.581,1.4.494.805-.805-.494-1.4.581-.22.917-.22-.918-1.4-.581-.805.494.494-.805-.581-1.4-.918-.22.918-.22.581-1.4-.494-.805.805.494,1.4-.581.22-.917.22.918,1.4.581.805-.494-.494.805.581,1.4Zm-2.652-.781a1.105,1.105,0,1,1-1.563,0A1.106,1.106,0,0,1,124.657,87.5Zm-18.776.78a4.352,4.352,0,0,0,2.051,3.369,2.492,2.492,0,0,0,4.406,2.13c.43.138.874.27,1.332.392-.219.811-.4,1.6-.523,2.358-.623,3.726-.009,6.331,1.73,7.335a3.313,3.313,0,0,0,1.684.43c1.55,0,3.452-.883,5.533-2.6.592-.488,1.187-1.037,1.78-1.631.593.6,1.188,1.143,1.78,1.631,2.081,1.715,3.982,2.6,5.533,2.6a3.311,3.311,0,0,0,1.684-.43,4.082,4.082,0,0,0,1.816-2.959,2.493,2.493,0,0,0-.177-4.875q-.174-.9-.432-1.858c.812-.216,1.584-.457,2.3-.726,3.538-1.323,5.487-3.158,5.487-5.166s-1.949-3.842-5.487-5.166c-.719-.269-1.492-.51-2.3-.726.219-.811.4-1.6.523-2.358.623-3.726.009-6.331-1.73-7.335a4.391,4.391,0,0,0-4.01.12,2.494,2.494,0,0,0-4.084,2.815q-.452.414-.9.866c-.593-.6-1.188-1.143-1.78-1.631-2.914-2.4-5.477-3.173-7.217-2.169s-2.353,3.609-1.73,7.335c.126.757.3,1.547.523,2.358-.812.216-1.584.457-2.3.726-3.538,1.324-5.486,3.158-5.486,5.166Zm4.462,5.29a1.284,1.284,0,1,1,1.284-1.284A1.285,1.285,0,0,1,110.344,93.575Zm5.142,9.243c-1.523-.879-1.824-4.028-.649-8.355a38.26,38.26,0,0,0,5.036.758,38.42,38.42,0,0,0,3.174,3.982c-3.16,3.182-6.037,4.5-7.56,3.616ZM131.2,86.878q-.549-1.075-1.166-2.148t-1.277-2.084a35.739,35.739,0,0,1,3.82.616,35.982,35.982,0,0,1-1.377,3.616Zm0,2.812a35.836,35.836,0,0,1,1.377,3.617,35.775,35.775,0,0,1-3.82.616q.656-1.013,1.277-2.084c.412-.714.8-1.432,1.166-2.148Zm-2.217-4.354c.579,1,1.1,1.987,1.565,2.948q-.7,1.44-1.565,2.948c-.579,1-1.172,1.945-1.77,2.829-1.065.076-2.177.118-3.335.118s-2.27-.042-3.335-.118q-.9-1.327-1.77-2.829c-.579-1-1.1-1.988-1.565-2.948q.7-1.44,1.565-2.948c.567-.982,1.16-1.928,1.773-2.829,1.065-.076,2.175-.118,3.333-.118s2.269.042,3.333.118c.611.9,1.205,1.848,1.772,2.829ZM117.72,84.73q-.619,1.072-1.166,2.148a35.728,35.728,0,0,1-1.377-3.617,35.741,35.741,0,0,1,3.82-.616q-.656,1.014-1.277,2.085Zm0,7.108q.619,1.072,1.277,2.084a35.74,35.74,0,0,1-3.82-.616,35.723,35.723,0,0,1,1.377-3.617c.366.717.754,1.435,1.166,2.148Zm3.713,3.491q1.205.062,2.443.064t2.443-.064a35.948,35.948,0,0,1-2.443,3A36.024,36.024,0,0,1,121.433,95.329Zm10.835,7.489c-1.523.879-4.4-.435-7.561-3.615a38.319,38.319,0,0,0,3.174-3.982,38.47,38.47,0,0,0,5.036-.758q.234.862.389,1.657a2.494,2.494,0,0,0,.146,4.784,2.821,2.821,0,0,1-1.185,1.914Zm3.1-4.327a1.284,1.284,0,1,1-1.284-1.284A1.285,1.285,0,0,1,135.366,98.49Zm5.292-10.206c0,1.759-2.576,3.594-6.911,4.74a38.291,38.291,0,0,0-1.862-4.74,38.426,38.426,0,0,0,1.862-4.74C138.081,84.69,140.658,86.525,140.658,88.284ZM126.976,73.165a1.284,1.284,0,1,1-1.284,1.284A1.285,1.285,0,0,1,126.976,73.165ZM125.6,76.53A2.492,2.492,0,0,0,129.41,73.9a3.229,3.229,0,0,1,2.857-.152c1.523.879,1.824,4.028.649,8.355a38.257,38.257,0,0,0-5.036-.758,38.347,38.347,0,0,0-3.165-3.972q.442-.445.884-.847Zm.714,4.71c-.8-.041-1.615-.064-2.437-.064s-1.635.022-2.437.064a35.849,35.849,0,0,1,2.437-2.984A36.182,36.182,0,0,1,126.314,81.24Zm-10.828-7.489a2.151,2.151,0,0,1,1.091-.268c1.241,0,2.9.8,4.748,2.323.569.469,1.142,1,1.712,1.571a38.4,38.4,0,0,0-3.165,3.972,38.471,38.471,0,0,0-5.036.758c-1.175-4.328-.873-7.477.649-8.356Zm-1.479,9.793a38.291,38.291,0,0,0,1.862,4.74,38.4,38.4,0,0,0-1.862,4.74c-.417-.11-.815-.228-1.2-.35a2.464,2.464,0,0,0,.033-.383,2.493,2.493,0,0,0-4.315-1.7,3.137,3.137,0,0,1-1.431-2.3c0-1.76,2.576-3.6,6.911-4.741Z" transform="translate(-97.999 -71.952)" fill="#00c8db"/>
</svg>
