<svg xmlns="http://www.w3.org/2000/svg" width="45.046" height="42.625" viewBox="0 0 45.046 42.625">
  <path id="noun-deep-learning-2985132" d="M158.052,148.852,157.246,142a1.371,1.371,0,0,0-1.223-2.446l-4.284-4.085a1.368,1.368,0,0,0-2.281-1.409l-5.273-1.9a1.368,1.368,0,0,0-2.635-.422l-5.829.158a1.373,1.373,0,0,0-2.513.766c0,.01,0,.019,0,.029l-5,3.148a1.341,1.341,0,0,0-2.131,1.279l-5.612,3.207a1.368,1.368,0,0,0-2,1.839l-3,5.533c-.038,0-.075-.011-.114-.011a1.373,1.373,0,1,0,.3,2.712l4.559,6.217a1.359,1.359,0,0,0-.19.685,1.373,1.373,0,0,0,2.631.549h8.472a1.372,1.372,0,0,0,1.257.824,1.357,1.357,0,0,0,.421-.073l11.519,12.958a1.372,1.372,0,1,0,1.794-.684V163.5a1.332,1.332,0,0,0,.8-1.473l5.578-3.586a1.372,1.372,0,0,0,1.888-1.925l3.08-5a1.367,1.367,0,0,0,.588-2.662Zm-1.386.355-7.261-2.7c0-.039-.006-.077-.012-.115l6.437-4.411a1.364,1.364,0,0,0,.325.145l.806,6.851a1.365,1.365,0,0,0-.295.227Zm-12.083,12.082-10.835-4.063a1.391,1.391,0,0,0-.018-.174l7.04-4.759a1.362,1.362,0,0,0,.646.207l3.2,8.754-.036.035Zm-15.018-11.326a1.379,1.379,0,0,0,.126-.162l10.354,1.657-6.93,4.684a1.364,1.364,0,0,0-.732-.215c-.011,0-.022,0-.033,0ZM128.3,138.037l9.861,3.44a1.393,1.393,0,0,0,.017.165l-8.929,6.25a1.358,1.358,0,0,0-.278-.128l-.872-9.591a1.358,1.358,0,0,0,.2-.136Zm21.344-1.929.014.011-1.9,9.125a1.366,1.366,0,0,0-.5.219l-6.376-3.908a.853.853,0,0,0,0-.341Zm-10.833,6.431a1.36,1.36,0,0,0,.423.173l1.48,7.3a1.378,1.378,0,0,0-.365.381l-10.386-1.662Zm3.415,7.434a1.363,1.363,0,0,0-.436-.179l-1.478-7.3,6.371,3.9a1.118,1.118,0,0,0,.021.5Zm.623.9,4.519-3.1a1.359,1.359,0,0,0,.669.181c.019,0,.036,0,.055-.006l3.936,8.08-9.163-4.806c0-.032.009-.062.009-.095a1.376,1.376,0,0,0-.026-.258Zm12.356-9.8-6.368,4.364,1.894-9.1a1.36,1.36,0,0,0,.251-.078l4.284,4.086a1.358,1.358,0,0,0-.087.467,1.374,1.374,0,0,0,.026.258Zm-6.112-5.921-8.554,4.985,2.3-6.516a1.365,1.365,0,0,0,.975-.429l5.273,1.9c0,.021,0,.042.006.062Zm-7.269-1.959-2.4,6.81-.026,0-3.668-6.6a1.361,1.361,0,0,0,.181-.422l5.671-.154a1.375,1.375,0,0,0,.245.36Zm-7.246.839a1.379,1.379,0,0,0,.225-.023l3.537,6.362-9.538-3.327c0-.025.007-.048.007-.073a1.38,1.38,0,0,0-.02-.2l4.889-3.079a1.363,1.363,0,0,0,.9.343ZM127,138.272l.861,9.471-6.943-6.075a1.368,1.368,0,0,0,.035-.3c0-.019,0-.037-.006-.055l5.671-3.24a1.356,1.356,0,0,0,.382.2Zm-7.42,4.471a1.36,1.36,0,0,0,.683-.189l6.808,5.957H116.611a1.361,1.361,0,0,0-.177-.29l2.981-5.5a1.332,1.332,0,0,0,.17.017Zm-2.974,6.867h10.67c.006.013.015.025.021.039L121.8,156a1.269,1.269,0,0,0-.7-.033l-4.559-6.217a1.4,1.4,0,0,0,.074-.136Zm6.022,7.1,5.5-6.346a1.36,1.36,0,0,0,.4.068c.011,0,.022,0,.033,0l2.785,5.967a1.37,1.37,0,0,0-.23.354h-8.472c-.006-.014-.015-.025-.021-.039ZM144.2,162.32a1.37,1.37,0,0,0,.816,1.183v7.186L134.268,158.6Zm1.452-1.44-3.145-8.6,9.386,4.923c0,.032-.01.062-.01.095a1.36,1.36,0,0,0,.022.216l-5.578,3.586a1.367,1.367,0,0,0-.675-.222Zm7.6-4.953c-.019,0-.036,0-.055.006l-4.069-8.351,7.153,2.657a1.362,1.362,0,0,0,.239.7l-3.08,5a1.364,1.364,0,0,0-.188-.019Z" transform="translate(-113.981 -130.882)" fill="#00c8db"/>
</svg>
