<svg id="noun-future-textile-4116521" xmlns="http://www.w3.org/2000/svg" width="41.397" height="46.956" viewBox="0 0 41.397 46.956">
  <path id="Path_9048" data-name="Path 9048" d="M165.722,33.558H141.433V28h-3.85a3.507,3.507,0,0,0-3.5,3.5v8.308h-6.253V74.956h37.895a3.507,3.507,0,0,0,3.5-3.5V37.062a3.507,3.507,0,0,0-3.5-3.5Zm2.4,22.928H160.54V52.028h2.432V43.691h5.153ZM151.305,39.72a.642.642,0,1,1-.642.642A.642.642,0,0,1,151.305,39.72ZM135.181,31.5a2.406,2.406,0,0,1,2.4-2.4h2.75V62.044h-2.75a3.492,3.492,0,0,0-2.4.956Zm2.4,31.641h3.85V34.659h9.321v4.051a1.742,1.742,0,1,0,1.1,0V34.659h13.867a2.4,2.4,0,0,1,2.4,2.373H161.3a1.742,1.742,0,1,0,0,1.1h6.823V42.59h-6.253v8.337H159.44v5.558h-2.026V47.643a1.743,1.743,0,1,0-1.1,0v8.845h-3.068V48.148h-5.88a1.741,1.741,0,1,0,.02,1.1h4.759v8.337h4.168v5.558h4.227V57.586h7.584v1.678h-4.864V67.95h-11.4V64.823h-2.779V58.688a1.743,1.743,0,1,0-1.1,0v7.235h2.779v2.026H137.584a2.4,2.4,0,1,1,0-4.8Zm22.708-25.563a.642.642,0,1,1-.642-.642A.642.642,0,0,1,160.292,37.581Zm-2.878,20h2.026v4.458h-2.026Zm-.547-10.955a.642.642,0,1,1,.642-.642A.642.642,0,0,1,156.867,46.632Zm-10.5,2.1a.642.642,0,1,1-.642-.642A.642.642,0,0,1,146.366,48.727Zm21.759,11.638V68.91a3.487,3.487,0,0,0-2.4-.96h-1.36V60.365Zm-19.6-2.687a.642.642,0,1,1,.642-.642A.642.642,0,0,1,148.527,57.678Zm17.2,16.177H128.928V40.911h5.153V65.548a3.507,3.507,0,0,0,3.5,3.5h28.138a2.4,2.4,0,0,1,0,4.805Z" transform="translate(-127.827 -28)" fill="#00c8db"/>
</svg>
